# This file uses centimeters as units for non-parametric coordinates.

mtllib circuitboard_SM.mtl
g default
v -44.630185 0.000000 44.630185
v -44.630185 1.914224 46.544407
v -46.544407 1.914224 44.630185
v 46.544407 1.914224 44.630185
v 44.630185 1.914224 46.544407
v 44.630185 0.000000 44.630185
v -46.544407 7.657851 44.630185
v -44.630185 7.657851 46.544407
v -44.630185 9.572075 44.630185
v 44.630185 9.572075 44.630185
v 44.630185 7.657851 46.544407
v 46.544407 7.657851 44.630185
v -46.544407 7.657851 -44.630185
v -44.630185 9.572075 -44.630185
v -44.630185 7.657851 -46.544407
v 44.630185 7.657851 -46.544407
v 44.630185 9.572075 -44.630185
v 46.544407 7.657851 -44.630185
v -46.544407 1.914224 -44.630185
v -44.630185 1.914224 -46.544407
v -44.630185 0.000000 -44.630185
v 44.630185 0.000000 -44.630185
v 44.630185 1.914224 -46.544407
v 46.544407 1.914224 -44.630185
vt 0.006977 0.678392
vt 0.000000 0.678392
vt 0.000000 0.353037
vt 0.016434 0.678392
vt 0.016434 0.699895
vt 0.000000 0.764417
vt 0.339310 0.678392
vt 0.332332 0.678392
vt 0.332332 0.353037
vt 0.339310 0.353037
vt 0.799174 0.699895
vt 0.000000 0.000000
vt 0.000000 0.345625
vt 0.016434 0.764417
vt 0.782741 0.764417
vt 0.782741 0.785921
vt 0.360449 0.000000
vt 0.000000 0.785921
vt 0.000000 0.850457
vt 0.007412 0.345625
vt 0.353037 0.345625
vt 0.353037 0.353037
vt 0.799356 0.785921
vt 0.799356 0.850457
vt 0.016437 0.850457
vt 0.782918 0.850457
vt 0.782918 0.871965
vt 0.782741 0.699895
vt 0.007412 0.000000
vt 0.353037 0.000000
vt 0.016437 0.785921
vt 0.782918 0.785921
vt 0.006977 0.353037
vt 0.000000 0.935983
vt 0.760320 0.935983
vt 0.760320 1.000000
vt 0.000000 1.000000
vt 0.000000 0.871965
vt 0.760320 0.871965
vt 0.760320 0.935983
vt 0.000000 0.935983
vt 0.000000 0.699895
vt 0.782741 0.678392
vt 0.016434 0.785921
vt 0.799174 0.764417
vt 0.007412 0.353037
vt 0.360449 0.345625
vt 0.016437 0.871965
vn -0.707107 -0.707107 0.000000
vn -0.707107 -0.707107 0.000000
vn -0.707107 -0.707107 0.000000
vn -0.707107 -0.707107 0.000000
vn 0.000000 -0.707106 0.707107
vn 0.000000 -0.707106 0.707107
vn 0.000000 -0.707106 0.707107
vn 0.000000 -0.707106 0.707107
vn -0.707107 0.000000 0.707107
vn -0.707107 0.000000 0.707107
vn -0.707107 0.000000 0.707107
vn -0.707107 0.000000 0.707107
vn 0.707107 -0.707107 0.000000
vn 0.707107 -0.707107 0.000000
vn 0.707107 -0.707107 0.000000
vn 0.707107 -0.707107 0.000000
vn 0.707107 0.000000 0.707107
vn 0.707107 0.000000 0.707107
vn 0.707107 0.000000 0.707107
vn 0.707107 0.000000 0.707107
vn -0.707107 0.707107 0.000000
vn -0.707107 0.707107 0.000000
vn -0.707107 0.707107 0.000000
vn -0.707107 0.707107 0.000000
vn 0.000000 0.707106 0.707107
vn 0.000000 0.707106 0.707107
vn 0.000000 0.707106 0.707107
vn 0.000000 0.707106 0.707107
vn 0.707107 0.707107 0.000000
vn 0.707107 0.707107 0.000000
vn 0.707107 0.707107 0.000000
vn 0.707107 0.707107 0.000000
vn -0.707107 0.000000 -0.707107
vn -0.707107 0.000000 -0.707107
vn -0.707107 0.000000 -0.707107
vn -0.707107 0.000000 -0.707107
vn 0.000000 0.707106 -0.707107
vn 0.000000 0.707106 -0.707107
vn 0.000000 0.707106 -0.707107
vn 0.000000 0.707106 -0.707107
vn 0.707107 0.000000 -0.707107
vn 0.707107 0.000000 -0.707107
vn 0.707107 0.000000 -0.707107
vn 0.707107 0.000000 -0.707107
vn 0.000000 -0.707106 -0.707107
vn 0.000000 -0.707106 -0.707107
vn 0.000000 -0.707106 -0.707107
vn 0.000000 -0.707106 -0.707107
vn 0.000000 0.000000 1.000000
vn 0.000000 0.000000 1.000000
vn 0.000000 0.000000 1.000000
vn 0.000000 0.000000 1.000000
vn 0.000000 1.000000 0.000000
vn 0.000000 1.000000 0.000000
vn 0.000000 1.000000 0.000000
vn 0.000000 1.000000 0.000000
vn 0.000000 0.000000 -1.000000
vn 0.000000 0.000000 -1.000000
vn 0.000000 0.000000 -1.000000
vn 0.000000 0.000000 -1.000000
vn 0.000000 -1.000000 0.000000
vn 0.000000 -1.000000 0.000000
vn 0.000000 -1.000000 0.000000
vn 0.000000 -1.000000 0.000000
vn 1.000000 0.000000 0.000000
vn 1.000000 0.000000 0.000000
vn 1.000000 0.000000 0.000000
vn 1.000000 0.000000 0.000000
vn -1.000000 0.000000 0.000000
vn -1.000000 0.000000 0.000000
vn -1.000000 0.000000 0.000000
vn -1.000000 0.000000 0.000000
vn -0.577351 -0.577350 0.577350
vn -0.577351 -0.577350 0.577350
vn -0.577351 -0.577350 0.577350
vn 0.577351 -0.577350 0.577350
vn 0.577351 -0.577350 0.577350
vn 0.577351 -0.577350 0.577350
vn -0.577351 0.577350 0.577350
vn -0.577351 0.577350 0.577350
vn -0.577351 0.577350 0.577350
vn 0.577351 0.577350 0.577350
vn 0.577351 0.577350 0.577350
vn 0.577351 0.577350 0.577350
vn -0.577351 0.577350 -0.577350
vn -0.577351 0.577350 -0.577350
vn -0.577351 0.577350 -0.577350
vn 0.577351 0.577350 -0.577350
vn 0.577351 0.577350 -0.577350
vn 0.577351 0.577350 -0.577350
vn -0.577351 -0.577350 -0.577350
vn -0.577351 -0.577350 -0.577350
vn -0.577351 -0.577350 -0.577350
vn 0.577351 -0.577350 -0.577350
vn 0.577351 -0.577350 -0.577350
vn 0.577351 -0.577350 -0.577350
s off
g circuit_SM
usemtl initialShadingGroup
f 1/1/1 3/2/2 19/3/3 21/33/4
f 2/5/5 1/4/6 6/43/7 5/28/8
f 3/42/9 2/5/10 8/14/11 7/6/12
f 4/7/13 6/8/14 22/9/15 24/10/16
f 5/28/17 4/11/18 12/45/19 11/15/20
f 7/12/21 9/29/22 14/20/23 13/13/24
f 9/44/25 8/14/26 11/15/27 10/16/28
f 10/30/29 12/17/30 18/47/31 17/21/32
f 13/18/33 15/31/34 20/25/35 19/19/36
f 15/46/37 14/20/38 17/21/39 16/22/40
f 16/32/41 18/23/42 24/24/43 23/26/44
f 21/48/45 20/25/46 23/26/47 22/27/48
f 2/5/49 5/28/50 11/15/51 8/14/52
f 9/29/53 10/30/54 17/21/55 14/20/56
f 15/31/57 16/32/58 23/26/59 20/25/60
f 21/33/61 22/9/62 6/8/63 1/1/64
f 4/34/65 24/35/66 18/36/67 12/37/68
f 19/38/69 3/39/70 7/40/71 13/41/72
f 1/4/73 2/5/74 3/42/75
f 4/11/76 5/28/77 6/43/78
f 7/6/79 8/14/80 9/44/81
f 10/16/82 11/15/83 12/45/84
f 13/13/85 14/20/86 15/46/87
f 16/22/88 17/21/89 18/47/90
f 19/19/91 20/25/92 21/48/93
f 22/27/94 23/26/95 24/24/96
