# This file uses centimeters as units for non-parametric coordinates.

mtllib cog_SM.mtl
g default
v 31.592934 1.620167 -18.240188
v 31.326581 0.000001 -16.217046
v 18.240188 1.620167 -31.592934
v 16.213928 0.000001 -31.326172
v 0.000000 1.620167 -36.480375
v 1.618915 0.000001 -35.238140
v -18.240188 1.620167 -31.592934
v -19.022297 0.000001 -29.704759
v -31.592934 1.620167 -18.240188
v -29.707666 0.000001 -19.021092
v -36.480375 1.620167 0.000000
v -35.236225 0.000001 1.621412
v -31.592934 1.620167 18.240188
v -31.326581 0.000001 16.217046
v -18.240188 1.620167 31.592934
v -16.213928 0.000001 31.326172
v 0.000000 1.620167 36.480375
v -1.618915 0.000001 35.238140
v 18.240188 1.620167 31.592934
v 19.022297 0.000001 29.704759
v 31.592934 1.620167 18.240188
v 29.707666 0.000001 19.021092
v 36.480375 1.620167 0.000000
v 35.236225 0.000001 -1.621412
v 31.592934 16.248668 -18.240188
v 31.326172 17.868833 -16.213928
v 16.213928 17.868833 -31.326172
v 18.240188 16.248668 -31.592934
v 0.000000 16.248668 -36.480375
v 1.621412 17.868833 -35.236225
v -19.022297 17.868833 -29.704759
v -18.240188 16.248668 -31.592934
v -31.592934 16.248668 -18.240188
v -29.704759 17.868833 -19.022297
v -35.236225 17.868833 1.621412
v -36.480375 16.248668 0.000000
v -31.592934 16.248668 18.240188
v -31.326172 17.868833 16.213928
v -16.213928 17.868833 31.326172
v -18.240188 16.248668 31.592934
v 0.000000 16.248668 36.480375
v -1.621412 17.868833 35.236225
v 19.022297 17.868833 29.704759
v 18.240188 16.248668 31.592934
v 31.592934 16.248668 18.240188
v 29.704759 17.868833 19.022297
v 35.236225 17.868833 -1.621412
v 36.480375 16.248668 0.000000
v 31.397588 1.692087 -54.382225
v 29.790495 0.105833 -54.930317
v 30.540013 1.694711 -56.454068
v 1.778603 1.694711 -64.160652
v 1.665586 0.105833 -62.466611
v 0.000000 1.692087 -62.795176
v 1.798004 16.156866 -64.155464
v 0.000000 16.176747 -62.795176
v 1.665586 17.763001 -62.466611
v 30.540013 16.174122 -56.454068
v 29.790867 17.763001 -54.930474
v 31.397588 16.176747 -54.382225
v -31.397588 1.692087 -54.382225
v -32.675796 0.105833 -53.264479
v -33.620647 1.694711 -54.675465
v -54.675465 1.694711 -33.620647
v -53.264883 0.105833 -32.675746
v -54.382225 1.692087 -31.397588
v -54.661257 16.156866 -33.634844
v -54.382225 16.176747 -31.397588
v -53.264883 17.763001 -32.675746
v -33.620647 16.174122 -54.675465
v -32.675746 17.763001 -53.264883
v -31.397588 16.176747 -54.382225
v -62.795176 1.692087 0.000000
v -62.466294 0.105833 1.665833
v -64.160652 1.694711 1.778603
v -56.454068 1.694711 30.540013
v -54.930474 0.105833 29.790867
v -54.382225 1.692087 31.397588
v -56.459260 16.156866 30.520611
v -54.382225 16.176747 31.397588
v -54.930474 17.763001 29.790867
v -64.160652 16.174122 1.778603
v -62.466611 17.763001 1.665586
v -62.795176 16.176747 0.000000
v -31.397588 1.692087 54.382225
v -29.790495 0.105833 54.930317
v -30.540013 1.694711 56.454068
v -1.778603 1.694711 64.160652
v -1.665586 0.105833 62.466611
v 0.000000 1.692087 62.795176
v -1.798004 16.156866 64.155464
v 0.000000 16.176747 62.795176
v -1.665586 17.763001 62.466611
v -30.540013 16.174122 56.454068
v -29.790867 17.763001 54.930474
v -31.397588 16.176747 54.382225
v 31.397588 1.692087 54.382225
v 32.675796 0.105833 53.264479
v 33.620647 1.694711 54.675465
v 54.675465 1.694711 33.620647
v 53.264883 0.105833 32.675746
v 54.382225 1.692087 31.397588
v 54.661257 16.156866 33.634844
v 54.382225 16.176747 31.397588
v 53.264883 17.763001 32.675746
v 33.620647 16.174122 54.675465
v 32.675746 17.763001 53.264883
v 31.397588 16.176747 54.382225
v 62.795176 1.692087 0.000000
v 62.466294 0.105833 -1.665833
v 64.160652 1.694711 -1.778603
v 56.454068 1.694711 -30.540013
v 54.930474 0.105833 -29.790867
v 54.382225 1.692087 -31.397588
v 56.459260 16.156866 -30.520611
v 54.382225 16.176747 -31.397588
v 54.930474 17.763001 -29.790867
v 64.160652 16.174122 -1.778603
v 62.466611 17.763001 -1.665586
v 62.795176 16.176747 0.000000
v 23.564254 17.868833 0.000000
v 21.888226 16.249917 0.000000
v 20.407244 17.868833 11.782127
v 18.955758 16.249917 10.944113
v 11.782127 17.868833 20.407244
v 10.944113 16.249917 18.955758
v 0.000000 17.868833 23.564254
v 0.000000 16.249917 21.888226
v -11.782127 17.868833 20.407244
v -10.944113 16.249917 18.955758
v -20.407244 17.868833 11.782127
v -18.955758 16.249917 10.944113
v -23.564254 17.868833 0.000000
v -21.888226 16.249917 0.000000
v -20.407244 17.868833 -11.782127
v -18.955758 16.249917 -10.944113
v -11.782127 17.868833 -20.407244
v -10.944113 16.249917 -18.955758
v 0.000000 17.868833 -23.564254
v 0.000000 16.249917 -21.888226
v 11.782127 17.868833 -20.407244
v 10.944113 16.249917 -18.955758
v 20.407244 17.868833 -11.782127
v 18.955758 16.249917 -10.944113
v 20.407244 0.000001 11.782127
v 18.955758 1.618919 10.944113
v 23.564254 0.000001 0.000000
v 21.888226 1.618919 0.000000
v 20.407244 0.000001 -11.782127
v 18.955758 1.618919 -10.944113
v 11.782127 0.000001 -20.407244
v 10.944113 1.618919 -18.955758
v 0.000000 0.000001 -23.564254
v 0.000000 1.618919 -21.888226
v -11.782127 0.000001 -20.407244
v -10.944113 1.618919 -18.955758
v -20.407244 0.000001 -11.782127
v -18.955758 1.618919 -10.944113
v -23.564254 0.000001 0.000000
v -21.888226 1.618919 0.000000
v -20.407244 0.000001 11.782127
v -18.955758 1.618919 10.944113
v -11.782127 0.000001 20.407244
v -10.944113 1.618919 18.955758
v 0.000000 0.000001 23.564254
v 0.000000 1.618919 21.888226
v 11.782127 0.000001 20.407244
v 10.944113 1.618919 18.955758
vt 0.215750 0.032727
vt 0.444494 0.698952
vt 0.388058 0.725681
vt 0.362689 0.765572
vt 0.357647 0.827714
vt 0.379425 0.869635
vt 0.430710 0.905134
vt 0.477924 0.907213
vt 0.534267 0.880539
vt 0.559737 0.840741
vt 0.564872 0.778522
vt 0.543069 0.736557
vt 0.491722 0.701058
vt 0.262638 0.213292
vt 0.869254 0.306725
vt 0.907071 0.356406
vt 0.914785 0.403030
vt 0.890727 0.460590
vt 0.854227 0.490638
vt 0.792296 0.498553
vt 0.748070 0.481905
vt 0.710269 0.432297
vt 0.702509 0.385671
vt 0.726611 0.328110
vt 0.763113 0.298112
vt 0.824976 0.290157
vt 0.342624 0.148016
vt 0.341855 0.677528
vt 0.299233 0.724636
vt 0.472181 0.048240
vt 0.990725 0.421566
vt 0.981292 0.408102
vt 0.981687 0.344596
vt 0.347237 0.146555
vt 0.480122 0.262312
vt 0.292814 0.843530
vt 0.312186 0.904013
vt 0.630011 0.329002
vt 0.876219 0.565647
vt 0.883148 0.550739
vt 0.938319 0.519263
vt 0.484321 0.264623
vt 0.451500 0.436499
vt 0.411987 0.969178
vt 0.474063 0.982639
vt 0.470205 0.598165
vt 0.694016 0.538372
vt 0.710394 0.536944
vt 0.765178 0.569066
vt 0.451584 0.441321
vt 0.290119 0.496942
vt 0.580282 0.928858
vt 0.623056 0.881910
vt 0.162965 0.599088
vt 0.626561 0.367185
vt 0.636002 0.380643
vt 0.635656 0.444155
vt 0.286107 0.499601
vt 0.155991 0.389470
vt 0.629702 0.762748
vt 0.610346 0.702233
vt 0.003624 0.336563
vt 0.741161 0.223084
vt 0.734225 0.237989
vt 0.679047 0.269420
vt 0.151578 0.387471
vt 0.179056 0.217025
vt 0.510442 0.637006
vt 0.448356 0.623534
vt 0.145656 0.057335
vt 0.923187 0.250141
vt 0.906812 0.251604
vt 0.851949 0.219591
vt 0.178607 0.212266
vt 0.270398 0.015870
vt 0.334793 0.662257
vt 0.466923 0.042002
vt 0.996901 0.414805
vt 0.566418 0.139317
vt 0.384634 0.223450
vt 0.276060 0.841979
vt 0.634153 0.322489
vt 0.885165 0.567606
vt 0.600054 0.451748
vt 0.438089 0.333973
vt 0.402266 0.982911
vt 0.477818 0.598730
vt 0.696779 0.547102
vt 0.353060 0.633199
vt 0.369240 0.433863
vt 0.587286 0.944156
vt 0.166841 0.605737
vt 0.620389 0.373951
vt 0.072739 0.516291
vt 0.249211 0.425180
vt 0.646454 0.764312
vt 0.000000 0.343461
vt 0.732216 0.221121
vt 0.026905 0.216443
vt 0.196550 0.316554
vt 0.520164 0.623274
vt 0.137641 0.059386
vt 0.920404 0.241415
vt 0.412500 0.747449
vt 0.391377 0.779737
vt 0.388733 0.817469
vt 0.406071 0.851895
vt 0.437386 0.873100
vt 0.475894 0.875270
vt 0.509897 0.858707
vt 0.531065 0.826486
vt 0.533787 0.788739
vt 0.516412 0.754281
vt 0.485041 0.733101
vt 0.446538 0.730904
vt 0.853003 0.335137
vt 0.876233 0.365010
vt 0.882058 0.403130
vt 0.867855 0.438204
vt 0.837761 0.462358
vt 0.800277 0.467542
vt 0.764359 0.453522
vt 0.741095 0.423688
vt 0.735231 0.385554
vt 0.749482 0.350508
vt 0.779572 0.326401
vt 0.817039 0.321160
vt 0.525673 0.100401
vt 0.316275 0.202483
vt 0.359524 0.000000
vt 0.612842 0.398523
vt 0.421003 0.264930
vt 0.621561 0.209735
vt 0.403814 0.617546
vt 0.420297 0.386222
vt 0.567643 0.532965
vt 0.112155 0.551870
vt 0.316378 0.444428
vt 0.268876 0.647409
vt 0.017313 0.268921
vt 0.213915 0.384736
vt 0.017604 0.452021
vt 0.212983 0.264320
vt 0.052766 0.134769
vt 0.944485 0.814026
vt 0.900437 0.745169
vt 0.878466 0.851085
vt 0.873742 0.768281
vt 0.802358 0.850120
vt 0.839748 0.777618
vt 0.737007 0.811289
vt 0.805789 0.767066
vt 0.699781 0.744920
vt 0.781435 0.741198
vt 0.700696 0.669217
vt 0.774764 0.706523
vt 0.739583 0.603787
vt 0.783677 0.672415
vt 0.805887 0.566605
vt 0.809797 0.648282
vt 0.881979 0.567551
vt 0.844375 0.640125
vt 0.947082 0.606196
vt 0.877739 0.651687
vt 0.984302 0.672590
vt 0.902822 0.676459
vt 0.983350 0.748602
vt 0.910663 0.711145
vt 0.860205 0.371757
vt 0.842125 0.349027
vt 0.864600 0.400666
vt 0.853976 0.427719
vt 0.831179 0.445992
vt 0.802454 0.450287
vt 0.775227 0.439638
vt 0.757116 0.416912
vt 0.752694 0.388036
vt 0.763337 0.361014
vt 0.786172 0.342753
vt 0.814905 0.338423
vt 0.853332 0.201780
vt 0.204436 0.172850
vt 0.208525 0.169810
vt 0.844224 0.204761
vt 0.664325 0.259298
vt 0.132062 0.345413
vt 0.131273 0.340340
vt 0.662341 0.268674
vt 0.619531 0.451847
vt 0.240392 0.494450
vt 0.235710 0.492425
vt 0.626660 0.458251
vt 0.763754 0.586875
vt 0.423072 0.478215
vt 0.418934 0.481282
vt 0.772869 0.583914
vt 0.953046 0.529376
vt 0.502262 0.308031
vt 0.502752 0.313173
vt 0.955024 0.519999
vt 0.997818 0.336916
vt 0.394270 0.156298
vt 0.397235 0.156809
vt 0.990693 0.330507
vt 0.813843 0.272666
vt 0.771386 0.280155
vt 0.705896 0.328980
vt 0.691105 0.369517
vt 0.700670 0.450672
vt 0.728379 0.483700
vt 0.803398 0.516063
vt 0.845939 0.508595
vt 0.911440 0.459706
vt 0.926192 0.419180
vt 0.916679 0.338033
vt 0.888948 0.304918
vt 0.444166 0.606173
vt 0.436427 0.611817
vt 0.057066 0.128462
vt 0.525589 0.630585
vt 0.623292 0.689929
vt 0.614536 0.686045
vt 0.015553 0.445004
vt 0.642829 0.772665
vt 0.640178 0.886992
vt 0.639175 0.877468
vt 0.261818 0.645459
vt 0.578240 0.945182
vt 0.478256 1.000000
vt 0.485993 0.994355
vt 0.562091 0.537844
vt 0.396841 0.975600
vt 0.299248 0.916325
vt 0.308005 0.920202
vt 0.623135 0.217121
vt 0.279678 0.833626
vt 0.282092 0.719619
vt 0.283130 0.729140
vt 0.367455 0.001057
vt 0.343836 0.661197
vt 0.509887 0.693249
vt 0.546506 0.716117
vt 0.580704 0.790375
vt 0.579167 0.833532
vt 0.531929 0.900170
vt 0.493902 0.920410
vt 0.412545 0.912937
vt 0.375985 0.890075
vt 0.341797 0.815904
vt 0.343279 0.772848
vt 0.390354 0.706043
vt 0.428495 0.685764
vt 0.514646 0.820768
vt 0.516411 0.791775
vt 0.498579 0.845188
vt 0.472594 0.858193
vt 0.443438 0.856531
vt 0.419219 0.840519
vt 0.406097 0.814397
vt 0.407820 0.785396
vt 0.423837 0.760963
vt 0.449819 0.747982
vt 0.479014 0.749671
vt 0.503273 0.765681
vn 0.011721 -0.143215 -0.989622
vn 0.004294 -0.998631 -0.052130
vn 0.052116 -0.998632 -0.004294
vn 0.989610 -0.143302 -0.011723
vn -0.444368 -0.096699 -0.890610
vn 0.045297 -0.995003 -0.088976
vn 0.088978 -0.995003 -0.045292
vn 0.890473 -0.096806 0.444620
vn -0.851178 -0.143215 -0.504962
vn -0.042999 -0.998631 -0.029784
vn 0.022339 -0.998632 -0.047281
vn 0.484653 -0.143302 -0.862888
vn -0.993475 -0.096699 -0.060471
vn -0.054407 -0.995003 -0.083717
vn 0.005265 -0.995003 -0.099703
vn 0.830288 -0.096806 -0.548862
vn -0.862898 -0.143215 0.484661
vn -0.047293 -0.998631 0.022346
vn -0.029776 -0.998632 -0.042987
vn -0.504957 -0.143302 -0.851166
vn -0.549107 -0.096700 0.830139
vn -0.099704 -0.995003 0.005259
vn -0.083713 -0.995003 -0.054411
vn -0.060185 -0.096806 -0.993482
vn -0.011721 -0.143215 0.989622
vn -0.004294 -0.998631 0.052130
vn -0.052116 -0.998632 0.004294
vn -0.989610 -0.143302 0.011723
vn 0.444368 -0.096699 0.890610
vn -0.045297 -0.995003 0.088976
vn -0.088978 -0.995003 0.045292
vn -0.890473 -0.096806 -0.444620
vn 0.851178 -0.143215 0.504962
vn 0.042999 -0.998631 0.029784
vn -0.022339 -0.998632 0.047281
vn -0.484653 -0.143302 0.862888
vn 0.993475 -0.096699 0.060471
vn 0.054407 -0.995003 0.083717
vn -0.005265 -0.995003 0.099703
vn -0.830288 -0.096806 0.548862
vn 0.862898 -0.143215 -0.484661
vn 0.047293 -0.998631 -0.022346
vn 0.029776 -0.998632 0.042987
vn 0.504957 -0.143302 0.851166
vn 0.549107 -0.096700 -0.830139
vn 0.099704 -0.995003 -0.005259
vn 0.083713 -0.995003 0.054411
vn 0.060185 -0.096806 0.993482
vn 0.011721 0.143344 -0.989603
vn 0.004294 0.998632 -0.052119
vn 0.045541 0.994982 -0.089088
vn -0.445227 0.096992 -0.890149
vn 0.989604 0.143344 -0.011721
vn 0.052119 0.998632 -0.004294
vn 0.890473 0.096801 0.444620
vn 0.089065 0.994977 -0.045706
vn -0.851161 0.143344 -0.504953
vn -0.042990 0.998632 -0.029778
vn -0.054382 0.994982 -0.083984
vn -0.993505 0.096992 -0.059497
vn 0.484651 0.143344 -0.862882
vn 0.022341 0.998632 -0.047284
vn 0.830289 0.096801 -0.548862
vn 0.004950 0.994977 -0.099985
vn -0.862882 0.143344 0.484651
vn -0.047284 0.998632 0.022341
vn -0.099923 0.994982 0.005104
vn -0.548278 0.096992 0.830653
vn -0.504953 0.143344 -0.851161
vn -0.029778 0.998632 -0.042990
vn -0.060184 0.096801 -0.993482
vn -0.084114 0.994977 -0.054279
vn -0.011721 0.143344 0.989603
vn -0.004294 0.998632 0.052119
vn -0.045541 0.994982 0.089088
vn 0.445227 0.096992 0.890149
vn -0.989604 0.143344 0.011721
vn -0.052119 0.998632 0.004294
vn -0.890473 0.096801 -0.444620
vn -0.089065 0.994977 0.045706
vn 0.851161 0.143344 0.504953
vn 0.042990 0.998632 0.029778
vn 0.054382 0.994982 0.083984
vn 0.993505 0.096992 0.059497
vn -0.484651 0.143344 0.862882
vn -0.022341 0.998632 0.047284
vn -0.830289 0.096801 0.548862
vn -0.004950 0.994977 0.099985
vn 0.862882 0.143344 -0.484651
vn 0.047284 0.998632 -0.022341
vn 0.099923 0.994982 -0.005104
vn 0.548278 0.096992 -0.830653
vn 0.504953 0.143344 0.851161
vn 0.029778 0.998632 0.042990
vn 0.060184 0.096801 0.993482
vn 0.084114 0.994977 0.054279
vn 0.309563 -0.097578 -0.945859
vn 0.309567 0.097751 -0.945840
vn 0.204870 -0.097536 -0.973917
vn 0.204073 0.097291 -0.974109
vn -0.664357 -0.097578 -0.741019
vn -0.664338 0.097752 -0.741012
vn -0.741002 -0.097536 -0.664381
vn -0.741567 0.097292 -0.663787
vn -0.973920 -0.097578 0.204840
vn -0.973905 0.097751 0.204827
vn -0.945872 -0.097536 0.309535
vn -0.945640 0.097291 0.310322
vn -0.309563 -0.097578 0.945859
vn -0.309567 0.097751 0.945840
vn -0.204870 -0.097536 0.973917
vn -0.204073 0.097291 0.974109
vn 0.664357 -0.097578 0.741019
vn 0.664338 0.097752 0.741012
vn 0.741002 -0.097536 0.664381
vn 0.741567 0.097292 0.663787
vn 0.973920 -0.097578 -0.204840
vn 0.973905 0.097751 -0.204827
vn 0.945872 -0.097536 -0.309535
vn 0.945640 0.097291 -0.310322
vn -0.080455 0.996758 0.000000
vn -0.993945 0.109875 0.000000
vn -0.860782 0.109875 -0.496973
vn -0.069676 0.996758 -0.040227
vn -0.069676 0.996758 0.040227
vn -0.860782 0.109875 0.496973
vn -0.496973 0.109875 -0.860782
vn -0.040227 0.996758 -0.069676
vn -0.000000 0.109875 -0.993945
vn -0.000000 0.996758 -0.080455
vn 0.496973 0.109875 -0.860782
vn 0.040227 0.996758 -0.069676
vn 0.860782 0.109875 -0.496973
vn 0.069676 0.996758 -0.040227
vn 0.993945 0.109875 0.000000
vn 0.080455 0.996758 -0.000000
vn 0.860782 0.109875 0.496973
vn 0.069676 0.996758 0.040227
vn 0.496973 0.109875 0.860782
vn 0.040227 0.996758 0.069676
vn 0.000000 0.109875 0.993945
vn 0.000000 0.996758 0.080455
vn -0.496973 0.109875 0.860782
vn -0.040227 0.996758 0.069676
vn -0.069670 -0.996759 -0.040224
vn -0.860782 -0.109875 -0.496973
vn -0.993945 -0.109875 0.000000
vn -0.080447 -0.996759 0.000000
vn -0.040224 -0.996759 -0.069670
vn -0.496973 -0.109875 -0.860782
vn -0.860782 -0.109875 0.496973
vn -0.069670 -0.996759 0.040224
vn -0.496973 -0.109875 0.860782
vn -0.040224 -0.996759 0.069670
vn 0.000000 -0.109875 0.993945
vn -0.000000 -0.996759 0.080448
vn 0.496973 -0.109875 0.860782
vn 0.040224 -0.996759 0.069670
vn 0.860782 -0.109875 0.496973
vn 0.069670 -0.996759 0.040224
vn 0.993945 -0.109875 0.000000
vn 0.080447 -0.996759 -0.000000
vn 0.860782 -0.109875 -0.496973
vn 0.069670 -0.996759 -0.040224
vn 0.496973 -0.109875 -0.860782
vn 0.040224 -0.996759 -0.069670
vn 0.000000 -0.109875 -0.993945
vn 0.000000 -0.996759 -0.080448
s 1
g cog_SM
usemtl initialShadingGroup
f 1/252/1 2/2/2 4/3/3 3/251/4
f 2/2/2 1/252/1 114/218/5 113/69/6
f 3/251/4 4/3/3 50/28/7 49/240/8
f 5/250/9 6/4/10 8/5/11 7/249/12
f 6/4/10 5/250/9 54/238/13 53/29/14
f 7/249/12 8/5/11 62/36/15 61/236/16
f 9/248/17 10/6/18 12/7/19 11/247/20
f 10/6/18 9/248/17 66/234/21 65/37/22
f 11/247/20 12/7/19 74/44/23 73/232/24
f 13/246/25 14/8/26 16/9/27 15/245/28
f 14/8/26 13/246/25 78/230/29 77/45/30
f 15/245/28 16/9/27 86/52/31 85/228/32
f 17/244/33 18/10/34 20/11/35 19/243/36
f 18/10/34 17/244/33 90/226/37 89/53/38
f 19/243/36 20/11/35 98/60/39 97/224/40
f 21/242/41 22/12/42 24/13/43 23/241/44
f 22/12/42 21/242/41 102/222/45 101/61/46
f 23/241/44 24/13/43 110/68/47 109/220/48
f 25/216/49 26/15/50 117/72/51 116/71/52
f 26/15/50 25/216/49 28/215/53 27/16/54
f 27/16/54 28/215/53 60/204/55 59/33/56
f 29/214/57 30/17/58 57/32/59 56/31/60
f 30/17/58 29/214/57 32/213/61 31/18/62
f 31/18/62 32/213/61 72/200/63 71/41/64
f 33/212/65 34/19/66 69/40/67 68/39/68
f 34/19/66 33/212/65 36/211/69 35/20/70
f 35/20/70 36/211/69 84/196/71 83/49/72
f 37/210/73 38/21/74 81/48/75 80/47/76
f 38/21/74 37/210/73 40/209/77 39/22/78
f 39/22/78 40/209/77 96/192/79 95/57/80
f 41/208/81 42/23/82 93/56/83 92/55/84
f 42/23/82 41/208/81 44/207/85 43/24/86
f 43/24/86 44/207/85 108/188/87 107/65/88
f 45/206/89 46/25/90 105/64/91 104/63/92
f 46/25/90 45/206/89 48/205/93 47/26/94
f 47/26/94 48/205/93 120/184/95 119/73/96
f 49/130/8 51/239/97 58/34/98 60/27/55
f 51/76/97 50/28/7 53/29/14 52/237/99
f 52/77/99 54/30/13 56/203/60 55/202/100
f 55/78/100 57/32/59 59/33/56 58/201/98
f 61/133/16 63/235/101 70/42/102 72/35/63
f 63/81/101 62/36/15 65/37/22 64/233/103
f 64/82/103 66/38/21 68/199/68 67/198/104
f 67/83/104 69/40/67 71/41/64 70/197/102
f 73/136/24 75/231/105 82/50/106 84/43/71
f 75/86/105 74/44/23 77/45/30 76/229/107
f 76/87/107 78/46/29 80/195/76 79/194/108
f 79/88/108 81/48/75 83/49/72 82/193/106
f 85/139/32 87/227/109 94/58/110 96/51/79
f 87/91/109 86/52/31 89/53/38 88/225/111
f 88/92/111 90/54/37 92/191/84 91/190/112
f 91/93/112 93/56/83 95/57/80 94/189/110
f 97/142/40 99/223/113 106/66/114 108/59/87
f 99/96/113 98/60/39 101/61/46 100/221/115
f 100/97/115 102/62/45 104/187/92 103/186/116
f 103/98/116 105/64/91 107/65/88 106/185/114
f 109/144/48 111/219/117 118/74/118 120/67/95
f 111/101/117 110/68/47 113/69/6 112/217/119
f 112/102/119 114/70/5 116/183/52 115/182/120
f 115/103/120 117/72/51 119/73/96 118/181/118
f 121/127/121 122/180/122 124/179/123 123/126/124
f 122/180/122 121/127/121 143/116/125 144/170/126
f 123/126/124 124/179/123 126/178/127 125/125/128
f 125/125/128 126/178/127 128/177/129 127/124/130
f 127/124/130 128/177/129 130/176/131 129/123/132
f 129/123/132 130/176/131 132/175/133 131/122/134
f 131/122/134 132/175/133 134/174/135 133/121/136
f 133/121/136 134/174/135 136/173/137 135/120/138
f 135/120/138 136/173/137 138/172/139 137/119/140
f 137/119/140 138/172/139 140/171/141 139/118/142
f 139/118/142 140/171/141 142/169/143 141/117/144
f 141/117/144 142/169/143 144/170/126 143/116/125
f 145/113/145 146/264/146 148/263/147 147/114/148
f 146/264/146 145/113/145 167/112/149 168/254/150
f 147/114/148 148/263/147 150/262/151 149/115/152
f 149/115/152 150/262/151 152/261/153 151/104/154
f 151/104/154 152/261/153 154/260/155 153/105/156
f 153/105/156 154/260/155 156/259/157 155/106/158
f 155/106/158 156/259/157 158/258/159 157/107/160
f 157/107/160 158/258/159 160/257/161 159/108/162
f 159/108/162 160/257/161 162/256/163 161/109/164
f 161/109/164 162/256/163 164/255/165 163/110/166
f 163/110/166 164/255/165 166/253/167 165/111/168
f 165/111/168 166/253/167 168/254/150 167/112/149
f 1/1/1 3/75/4 28/129/53 25/14/49
f 51/239/97 52/77/99 55/202/100 58/34/98
f 5/128/9 7/79/12 32/132/61 29/80/57
f 63/235/101 64/82/103 67/198/104 70/42/102
f 9/131/17 11/84/20 36/135/69 33/85/65
f 75/231/105 76/87/107 79/194/108 82/50/106
f 13/134/25 15/89/28 40/138/77 37/90/73
f 87/227/109 88/92/111 91/190/112 94/58/110
f 17/137/33 19/94/36 44/141/85 41/95/81
f 99/223/113 100/97/115 103/186/116 106/66/114
f 21/140/41 23/99/44 48/143/93 45/100/89
f 111/219/117 112/102/119 115/182/120 118/74/118
f 4/3/3 2/2/2 149/115/152 151/104/154
f 6/4/10 4/3/3 151/104/154 153/105/156
f 8/5/11 6/4/10 153/105/156 155/106/158
f 10/6/18 8/5/11 155/106/158 157/107/160
f 12/7/19 10/6/18 157/107/160 159/108/162
f 14/8/26 12/7/19 159/108/162 161/109/164
f 16/9/27 14/8/26 161/109/164 163/110/166
f 18/10/34 16/9/27 163/110/166 165/111/168
f 20/11/35 18/10/34 165/111/168 167/112/149
f 22/12/42 20/11/35 167/112/149 145/113/145
f 24/13/43 22/12/42 145/113/145 147/114/148
f 2/2/2 24/13/43 147/114/148 149/115/152
f 26/15/50 27/16/54 141/117/144 143/116/125
f 27/16/54 30/17/58 139/118/142 141/117/144
f 30/17/58 31/18/62 137/119/140 139/118/142
f 31/18/62 34/19/66 135/120/138 137/119/140
f 34/19/66 35/20/70 133/121/136 135/120/138
f 35/20/70 38/21/74 131/122/134 133/121/136
f 38/21/74 39/22/78 129/123/132 131/122/134
f 39/22/78 42/23/82 127/124/130 129/123/132
f 42/23/82 43/24/86 125/125/128 127/124/130
f 43/24/86 46/25/90 123/126/124 125/125/128
f 46/25/90 47/26/94 121/127/121 123/126/124
f 47/26/94 26/15/50 143/116/125 121/127/121
f 4/3/3 6/4/10 53/29/14 50/28/7
f 5/128/9 29/80/57 56/203/60 54/30/13
f 30/17/58 27/16/54 59/33/56 57/32/59
f 28/129/53 3/75/4 49/130/8 60/27/55
f 8/5/11 10/6/18 65/37/22 62/36/15
f 9/131/17 33/85/65 68/199/68 66/38/21
f 34/19/66 31/18/62 71/41/64 69/40/67
f 32/132/61 7/79/12 61/133/16 72/35/63
f 12/7/19 14/8/26 77/45/30 74/44/23
f 13/134/25 37/90/73 80/195/76 78/46/29
f 38/21/74 35/20/70 83/49/72 81/48/75
f 36/135/69 11/84/20 73/136/24 84/43/71
f 16/9/27 18/10/34 89/53/38 86/52/31
f 17/137/33 41/95/81 92/191/84 90/54/37
f 42/23/82 39/22/78 95/57/80 93/56/83
f 40/138/77 15/89/28 85/139/32 96/51/79
f 20/11/35 22/12/42 101/61/46 98/60/39
f 21/140/41 45/100/89 104/187/92 102/62/45
f 46/25/90 43/24/86 107/65/88 105/64/91
f 44/141/85 19/94/36 97/142/40 108/59/87
f 24/13/43 2/2/2 113/69/6 110/68/47
f 1/1/1 25/14/49 116/183/52 114/70/5
f 26/15/50 47/26/94 119/73/96 117/72/51
f 48/143/93 23/99/44 109/144/48 120/67/95
f 124/167/123 122/145/122 148/148/147 146/146/146
f 122/145/122 144/147/126 150/150/151 148/148/147
f 144/147/126 142/149/143 152/152/153 150/150/151
f 142/149/143 140/151/141 154/154/155 152/152/153
f 140/151/141 138/153/139 156/156/157 154/154/155
f 138/153/139 136/155/137 158/158/159 156/156/157
f 136/155/137 134/157/135 160/160/161 158/158/159
f 134/157/135 132/159/133 162/162/163 160/160/161
f 132/159/133 130/161/131 164/164/165 162/162/163
f 130/161/131 128/163/129 166/166/167 164/164/165
f 128/163/129 126/165/127 168/168/150 166/166/167
f 126/165/127 124/167/123 146/146/146 168/168/150
f 49/240/8 50/28/7 51/76/97
f 52/237/99 53/29/14 54/238/13
f 55/78/100 56/31/60 57/32/59
f 58/201/98 59/33/56 60/204/55
f 61/236/16 62/36/15 63/81/101
f 64/233/103 65/37/22 66/234/21
f 67/83/104 68/39/68 69/40/67
f 70/197/102 71/41/64 72/200/63
f 73/232/24 74/44/23 75/86/105
f 76/229/107 77/45/30 78/230/29
f 79/88/108 80/47/76 81/48/75
f 82/193/106 83/49/72 84/196/71
f 85/228/32 86/52/31 87/91/109
f 88/225/111 89/53/38 90/226/37
f 91/93/112 92/55/84 93/56/83
f 94/189/110 95/57/80 96/192/79
f 97/224/40 98/60/39 99/96/113
f 100/221/115 101/61/46 102/222/45
f 103/98/116 104/63/92 105/64/91
f 106/185/114 107/65/88 108/188/87
f 109/220/48 110/68/47 111/101/117
f 112/217/119 113/69/6 114/218/5
f 115/103/120 116/71/52 117/72/51
f 118/181/118 119/73/96 120/184/95
