# This file uses centimeters as units for non-parametric coordinates.

mtllib grass_SM.mtl
g default
v -2.666931 0.000000 -1.738098
v 1.121475 0.000000 -1.738098
v -4.621702 6.695157 0.545019
v -5.327233 13.121571 1.242738
v -4.010962 20.678419 -1.973492
v -1.475327 27.064230 -5.246445
v 1.154409 20.580677 -1.892321
v 2.824296 12.903458 1.291901
v 2.322758 6.525811 0.507951
v -1.327754 20.533525 -1.985244
v -1.136255 12.893085 1.291357
v -1.013178 6.594600 0.533728
v -0.895378 0.000000 -1.738098
v -4.946014 17.258888 0.062438
v -1.239326 17.070120 0.091049
v 2.252748 17.118891 0.161118
v -5.145195 10.062141 1.204394
v -1.074931 9.900661 1.221857
v 2.743899 9.868303 1.196915
v -3.665212 2.871791 -0.667669
v -0.946620 2.835752 -0.683231
v 1.791996 2.802649 -0.694261
v -3.170341 22.599098 -3.272225
v -1.378121 22.574657 -3.324127
v 0.233725 22.641624 -3.298640
v -10.979992 0.050760 -6.923960
v -9.323502 -0.046672 -6.089113
v -11.670635 2.987779 -6.696237
v -12.680901 5.854454 -5.965180
v -14.777154 9.366333 -4.316271
v -16.371862 12.134879 -2.623168
v -12.963800 10.372275 -3.206171
v -9.503393 6.781849 -4.201496
v -8.677443 3.201006 -5.185132
v -13.856528 9.877361 -3.740502
v -11.029121 6.272857 -5.065814
v -10.094259 3.052270 -5.916225
v -10.201002 -0.003880 -6.534780
v -13.739896 7.772697 -5.163280
v -12.417435 8.362864 -4.361448
v -11.134154 8.955088 -3.607072
v -12.111886 4.472662 -6.384893
v -10.412722 4.717076 -5.507337
v -8.867951 5.066998 -4.670521
v -11.284201 1.320516 -6.882931
v -10.075944 1.275156 -6.291138
v -8.881011 1.281428 -5.687802
v -15.307131 10.266565 -3.770616
v -14.716957 10.654562 -3.376481
v -14.160490 11.014807 -3.021935
v 7.462018 -0.174999 -3.572298
v 8.106932 0.064933 -4.900502
v 7.310764 4.193532 -1.788545
v 7.794737 7.554558 -0.882643
v 8.414184 10.659643 -1.341743
v 8.730366 13.649225 -2.782019
v 10.033985 9.941922 -2.712470
v 9.460729 6.847880 -3.681728
v 8.530953 4.134287 -4.283897
v 9.301733 10.217809 -2.020219
v 8.698488 7.084828 -2.299939
v 7.955427 4.144617 -3.074207
v 7.763807 -0.063254 -4.191979
v 8.154074 9.266924 -0.933362
v 9.177277 8.715290 -2.034575
v 10.005405 8.394348 -3.153380
v 7.527277 6.093510 -1.165364
v 8.305236 5.825240 -2.601949
v 8.984832 5.696998 -3.973797
v 7.330745 1.687325 -2.742600
v 7.798740 1.786895 -3.702397
v 8.267247 1.891623 -4.680979
v 8.584618 11.470566 -1.730622
v 9.215763 11.204145 -2.146478
v 9.745329 11.029605 -2.549943
v -7.896368 -0.062024 0.328398
v -6.207689 0.019542 0.344192
v -8.275652 1.871092 1.747852
v -9.003372 3.603666 2.402723
v -10.772511 5.968121 1.388241
v -12.611317 8.535807 0.387144
v -9.055958 7.523197 1.726504
v -5.652923 5.076921 2.710490
v -5.241999 2.473833 1.847591
v -9.893033 6.726660 1.529735
v -7.261905 4.297839 2.559390
v -6.665786 2.163456 1.799293
v -7.101022 -0.026193 0.335336
v -9.833510 4.814556 2.096874
v -8.461887 5.681435 2.277822
v -7.148116 6.623232 2.492256
v -8.578097 2.772571 2.224248
v -6.811613 3.277455 2.330001
v -5.213416 3.833977 2.426341
v -8.069744 0.812134 0.987673
v -6.844515 0.922398 1.001899
v -5.654345 1.053548 1.022244
v -11.328400 6.730728 0.941377
v -10.802876 7.295988 1.027067
v -10.316829 7.854088 1.146798
v 6.635589 0.019173 0.283124
v 8.405548 -0.004603 0.279730
v 5.664538 3.269289 1.065074
v 5.851800 6.549095 1.772421
v 7.908080 10.022644 2.387857
v 10.382806 12.376822 2.765582
v 10.155687 9.177751 2.326002
v 9.539398 5.659697 1.687764
v 8.888502 2.887887 1.017289
v 9.086863 9.543707 2.350374
v 7.749824 6.042591 1.728329
v 7.332321 3.065547 1.045452
v 7.461789 0.007830 0.282085
v 6.738933 8.552332 2.143804
v 8.396647 7.985125 2.099175
v 9.928190 7.543677 2.063330
v 5.599065 4.987359 1.450194
v 7.464281 4.627628 1.418076
v 9.221584 4.340268 1.381202
v 6.103712 1.380286 0.613936
v 7.367754 1.312190 0.606836
v 8.652831 1.246075 0.594480
v 8.723682 10.746738 2.503999
v 9.516416 10.439453 2.482255
v 10.216318 10.201025 2.468654
v 4.130599 0.000000 -1.339381
v 7.049952 0.000000 -1.339381
v 2.624248 5.159301 0.419993
v 1.745646 10.762864 0.833158
v 6.837152 19.452393 -2.302649
v 15.454451 21.355137 -4.042922
v 9.712824 17.235743 -1.574276
v 7.809961 10.385652 1.031489
v 7.975663 5.028803 0.391428
v 8.458183 18.561918 -1.998118
v 4.781496 10.566700 0.932711
v 5.399008 5.081610 0.411633
v 5.495761 0.000000 -1.339381
v 3.011476 15.657225 -0.443305
v 5.658403 15.010893 -0.223356
v 8.106323 14.062554 0.121381
v 2.011277 7.903921 0.906990
v 5.051770 7.764845 0.942301
v 7.996816 7.778225 0.936911
v 3.361322 2.213008 -0.514507
v 5.456274 2.185236 -0.526499
v 7.566657 2.159726 -0.534999
v 9.953609 20.916035 -3.223295
v 10.848377 19.976532 -2.989666
v 11.464530 18.963362 -2.703437
v -7.867369 0.000000 -2.211300
v -5.770387 0.000000 -3.218202
v -7.948321 6.658637 0.360246
v -8.621232 12.275698 1.457340
v -14.430714 18.570028 0.679076
v -20.445477 24.132130 -0.063538
v -11.840113 20.134975 -0.474801
v -4.070693 12.844797 -0.673142
v -4.123207 6.518177 -1.517567
v -13.120382 19.303541 0.036863
v -6.269608 12.460529 0.382100
v -5.955429 6.571954 -0.609200
v -6.886768 0.000000 -2.682152
v -10.953332 15.677626 1.267823
v -8.967503 16.296003 0.346032
v -7.048511 17.076921 -0.497677
v -8.021119 9.704594 1.126651
v -5.755404 9.698872 0.058101
v -3.649343 9.812359 -0.980829
v -7.956604 2.871791 -0.981018
v -6.458529 2.835752 -1.717608
v -4.947408 2.802649 -2.455435
v -16.597477 20.261852 0.278793
v -15.853656 20.891678 -0.135943
v -15.136697 21.537516 -0.451929
v 2.002844 0.000000 -0.399452
v 0.034090 0.000000 -0.470416
v 3.480656 6.491579 2.238051
v 4.936922 11.853593 3.161500
v 5.215225 17.458876 1.502789
v 4.808901 22.628258 -2.027370
v 2.424146 18.029888 1.315954
v 0.169161 11.793728 3.103820
v -0.666884 6.410416 2.141941
v 3.745913 17.647976 1.366635
v 2.613464 11.586668 3.101771
v 1.297141 6.393825 2.208559
v 1.082204 0.000000 -0.432635
v 5.112337 15.072725 2.734148
v 3.372478 15.102961 2.523393
v 1.393150 15.384210 2.389608
v 4.402473 9.372747 2.937062
v 1.854402 9.163342 2.987111
v -0.517965 9.313118 2.944959
v 2.418577 2.869242 0.878475
v 0.995615 2.835752 0.810628
v -0.426401 2.802649 0.746339
v 5.161213 18.807833 0.385358
v 4.197180 18.979862 0.276909
v 3.005096 19.241169 0.233807
vt 0.849460 0.000006
vt 0.953341 0.000000
vt 0.795875 0.194049
vt 0.776514 0.372043
vt 0.812093 0.599024
vt 0.881074 0.796753
vt 0.953796 0.595963
vt 1.000000 0.366183
vt 0.986291 0.189299
vt 0.885696 0.595958
vt 0.891404 0.365918
vt 0.894821 0.191284
vt 0.898037 0.000002
vt 0.786693 0.489951
vt 0.888432 0.485149
vt 0.984261 0.485817
vt 0.781547 0.288151
vt 0.893124 0.283854
vt 0.997806 0.282904
vt 0.822088 0.084045
vt 0.896637 0.082962
vt 0.971735 0.082006
vt 0.834979 0.662641
vt 0.884126 0.662851
vt 0.928326 0.664273
vt 0.000000 0.401309
vt 0.022335 0.341023
vt 0.042106 0.346847
vt 0.034169 0.309864
vt 0.052374 0.252925
vt 0.095656 0.260432
vt 0.064939 0.317008
vt 0.064837 0.182537
vt 0.065239 0.135069
vt 0.114355 0.134871
vt 0.114745 0.186621
vt 0.080400 0.032769
vt 0.102086 0.082979
vt 0.058444 0.087739
vt 0.044407 0.039955
vt 0.001143 0.334490
vt 0.007609 0.245398
vt 0.002165 0.302198
vt 0.012528 0.139051
vt 0.012014 0.181595
vt 0.010863 0.095765
vt 0.008528 0.048618
vt 0.031373 0.006542
vt 0.008281 0.012798
vt 0.057581 0.000000
vt 0.233518 0.918140
vt 0.234179 0.847607
vt 0.252532 0.843206
vt 0.234419 0.820262
vt 0.233452 0.778945
vt 0.271649 0.770447
vt 0.262266 0.813567
vt 0.231222 0.731803
vt 0.231237 0.694621
vt 0.272913 0.688354
vt 0.274167 0.723346
vt 0.274258 0.580192
vt 0.271945 0.642993
vt 0.235322 0.645909
vt 0.244380 0.579457
vt 0.213415 0.854784
vt 0.191854 0.792974
vt 0.203532 0.831695
vt 0.186828 0.704080
vt 0.185304 0.745440
vt 0.196071 0.649801
vt 0.214989 0.578789
vt 0.252438 0.527591
vt 0.233370 0.525877
vt 0.274219 0.529557
vt 0.276486 0.632813
vt 0.309717 0.579727
vt 0.328618 0.587789
vt 0.328345 0.553103
vt 0.355705 0.507938
vt 0.399519 0.516958
vt 0.358886 0.563054
vt 0.371525 0.459604
vt 0.371253 0.428378
vt 0.417574 0.424778
vt 0.420684 0.461617
vt 0.372837 0.350760
vt 0.400774 0.387872
vt 0.361575 0.395724
vt 0.341419 0.360322
vt 0.290019 0.571670
vt 0.311423 0.501108
vt 0.297551 0.544049
vt 0.321249 0.434922
vt 0.319980 0.460947
vt 0.317881 0.405948
vt 0.309345 0.370778
vt 0.322695 0.333687
vt 0.302208 0.341231
vt 0.345757 0.325334
vt 0.468610 0.816088
vt 0.456140 0.758719
vt 0.476260 0.756189
vt 0.449597 0.732032
vt 0.439750 0.685826
vt 0.483330 0.682395
vt 0.480332 0.728105
vt 0.433216 0.629150
vt 0.433461 0.588668
vt 0.482261 0.590517
vt 0.483406 0.628651
vt 0.484378 0.501621
vt 0.481472 0.548465
vt 0.438674 0.544795
vt 0.449479 0.496420
vt 0.433145 0.762599
vt 0.392082 0.691933
vt 0.415281 0.738405
vt 0.381370 0.588100
vt 0.379433 0.632329
vt 0.392746 0.541145
vt 0.415140 0.491351
vt 0.459333 0.460811
vt 0.437069 0.456610
vt 0.484763 0.465616
vt 0.839933 0.684782
vt 0.728619 0.608474
vt 0.752429 0.584982
vt 0.675876 0.547170
vt 0.627926 0.422882
vt 0.699792 0.412502
vt 0.718747 0.518843
vt 0.635315 0.294890
vt 0.660785 0.222046
vt 0.739148 0.241490
vt 0.717210 0.309798
vt 0.765405 0.083669
vt 0.756761 0.166657
vt 0.687756 0.151443
vt 0.709001 0.070708
vt 0.698014 0.627707
vt 0.552972 0.423246
vt 0.626434 0.561186
vt 0.578925 0.205864
vt 0.553140 0.280287
vt 0.613319 0.135537
vt 0.652983 0.057942
vt 0.725159 0.008845
vt 0.688785 0.000000
vt 0.766569 0.018916
vt 0.000000 0.803867
vt 0.081006 0.672759
vt 0.107288 0.681935
vt 0.130784 0.601660
vt 0.200523 0.479180
vt 0.261837 0.481250
vt 0.174129 0.609966
vt 0.231511 0.354300
vt 0.224441 0.277117
vt 0.286721 0.260551
vt 0.298456 0.344136
vt 0.212759 0.074796
vt 0.253832 0.174128
vt 0.200842 0.192542
vt 0.169076 0.089596
vt 0.053415 0.663713
vt 0.138146 0.481294
vt 0.086473 0.595082
vt 0.159004 0.297924
vt 0.162414 0.370826
vt 0.143611 0.213123
vt 0.125751 0.104409
vt 0.144911 0.010228
vt 0.116469 0.019212
vt 0.177291 0.000000
vt 0.610066 0.579619
vt 0.518639 0.498608
vt 0.545682 0.478944
vt 0.514522 0.441247
vt 0.485360 0.465221
vt 0.427756 0.405526
vt 0.473668 0.375279
vt 0.413226 0.295471
vt 0.354849 0.329025
vt 0.308780 0.275306
vt 0.366017 0.244193
vt 0.230430 0.103565
vt 0.266328 0.088214
vt 0.318623 0.179405
vt 0.269849 0.202288
vt 0.567371 0.462896
vt 0.516316 0.352924
vt 0.548630 0.418856
vt 0.431464 0.219325
vt 0.473893 0.274726
vt 0.302281 0.072897
vt 0.373983 0.156402
vt 0.232046 0.010507
vt 0.255018 0.000000
vt 0.205894 0.022469
vn 0.003794 0.393677 0.919241
vn -0.000347 0.482924 0.875662
vn -0.036651 0.497699 0.866575
vn -0.002345 0.521232 0.853412
vn -0.003014 0.374040 0.927408
vn -0.018825 0.357456 0.933740
vn -0.033342 0.516992 0.855341
vn -0.003208 0.146349 0.989228
vn -0.002506 -0.114842 0.993381
vn 0.003566 -0.113397 0.993543
vn -0.005072 0.140215 0.990108
vn 0.000325 -0.321128 0.947036
vn 0.002474 -0.251716 0.967798
vn -0.001428 -0.253457 0.967346
vn -0.000591 -0.322013 0.946735
vn 0.032539 0.497513 0.866846
vn 0.012817 0.370741 0.928648
vn 0.026300 0.519565 0.854026
vn -0.008291 -0.102206 0.994729
vn -0.000590 0.156922 0.987611
vn -0.005473 -0.243713 0.969832
vn -0.001742 -0.317282 0.948330
vn 0.000085 -0.348847 0.937180
vn 0.000448 -0.348886 0.937165
vn -0.000254 -0.348810 0.937193
vn -0.149392 -0.575996 0.803686
vn -0.160767 -0.571004 0.805052
vn -0.161007 -0.562682 0.810843
vn -0.206102 -0.549826 0.809452
vn -0.268005 -0.504072 0.821026
vn -0.272369 -0.487370 0.829630
vn -0.209978 -0.536018 0.817676
vn -0.328785 -0.438655 0.836351
vn -0.388912 -0.338526 0.856825
vn -0.386303 -0.336620 0.858753
vn -0.327750 -0.427844 0.842336
vn -0.441519 -0.169264 0.881142
vn -0.422015 -0.246513 0.872430
vn -0.422672 -0.242889 0.873129
vn -0.439798 -0.167290 0.882378
vn -0.164812 -0.576844 0.800055
vn -0.270665 -0.515946 0.812736
vn -0.208751 -0.559733 0.801949
vn -0.387951 -0.348917 0.853083
vn -0.329178 -0.452454 0.828811
vn -0.419658 -0.252393 0.871886
vn -0.435944 -0.176180 0.882561
vn -0.446958 -0.125754 0.885672
vn -0.444134 -0.130224 0.886446
vn -0.449993 -0.120924 0.884807
vn 0.622158 0.310335 0.718757
vn 0.639393 0.232503 0.732884
vn 0.664779 0.179071 0.725260
vn 0.692044 0.007962 0.721811
vn 0.730711 -0.203166 0.651756
vn 0.742567 -0.306010 0.595778
vn 0.721143 -0.090497 0.686851
vn 0.762049 -0.324920 0.560097
vn 0.819129 -0.319729 0.476237
vn 0.824323 -0.349848 0.445082
vn 0.766737 -0.389283 0.510464
vn 0.895225 -0.156882 0.417085
vn 0.874654 -0.235489 0.423706
vn 0.869204 -0.228379 0.438551
vn 0.892680 -0.154545 0.423365
vn 0.621700 0.249627 0.742412
vn 0.713580 -0.119678 0.690276
vn 0.669509 0.064705 0.739980
vn 0.808372 -0.293543 0.510262
vn 0.750774 -0.255868 0.608991
vn 0.859585 -0.230357 0.456124
vn 0.888880 -0.155253 0.431033
vn 0.899468 -0.127162 0.418075
vn 0.898278 -0.126262 0.420898
vn 0.900521 -0.127963 0.415557
vn -0.282152 0.081811 0.955875
vn -0.337114 0.149089 0.929584
vn -0.360939 0.133004 0.923056
vn -0.337453 0.213339 0.916849
vn -0.227890 0.130713 0.964873
vn -0.203291 0.081975 0.975681
vn -0.331482 0.173520 0.927367
vn -0.086516 -0.052803 0.994850
vn 0.038597 -0.320225 0.946555
vn 0.039528 -0.298185 0.953689
vn -0.077221 -0.072998 0.994338
vn 0.059765 -0.540733 0.839069
vn 0.070835 -0.452914 0.888736
vn 0.065744 -0.482296 0.873538
vn 0.053002 -0.558736 0.827650
vn -0.328595 0.183204 0.926532
vn -0.237811 0.179945 0.954498
vn -0.333792 0.253099 0.908033
vn 0.029600 -0.322730 0.946028
vn -0.101783 -0.013211 0.994719
vn 0.060782 -0.496203 0.866076
vn 0.051319 -0.569514 0.820378
vn 0.035371 -0.581285 0.812931
vn 0.034122 -0.588905 0.807482
vn 0.037004 -0.571221 0.819962
vn -0.025334 -0.133556 0.990717
vn -0.024742 -0.134052 0.990665
vn -0.025409 -0.134521 0.990585
vn -0.024641 -0.144898 0.989140
vn -0.025484 -0.167340 0.985570
vn -0.023735 -0.173208 0.984599
vn -0.024477 -0.148186 0.988657
vn -0.024949 -0.192097 0.981059
vn -0.020832 -0.219297 0.975436
vn -0.016807 -0.225305 0.974143
vn -0.021726 -0.198399 0.979881
vn -0.005524 -0.244563 0.969618
vn -0.010809 -0.240087 0.970691
vn -0.014400 -0.235585 0.971747
vn -0.007967 -0.241890 0.970271
vn -0.023910 -0.133690 0.990735
vn -0.027135 -0.164905 0.985936
vn -0.024945 -0.143758 0.989298
vn -0.024479 -0.212929 0.976761
vn -0.027568 -0.186850 0.982002
vn -0.018316 -0.230237 0.972962
vn -0.011340 -0.239187 0.970907
vn -0.003634 -0.241437 0.970410
vn -0.005341 -0.240008 0.970756
vn -0.002149 -0.242679 0.970104
vn 0.113160 0.336227 0.934958
vn 0.122555 0.375574 0.918653
vn 0.142696 0.377121 0.915105
vn 0.077110 0.413527 0.907221
vn 0.012654 0.332075 0.943168
vn 0.013209 0.321674 0.946758
vn 0.092400 0.415906 0.904701
vn -0.020298 0.155761 0.987586
vn -0.011979 -0.095481 0.995359
vn -0.006583 -0.105257 0.994423
vn -0.022483 0.138421 0.990118
vn 0.000380 -0.321160 0.947025
vn 0.002012 -0.247449 0.968899
vn -0.002385 -0.247123 0.968981
vn -0.000590 -0.322059 0.946719
vn 0.104667 0.390945 0.914444
vn 0.003040 0.314028 0.949409
vn 0.050358 0.413999 0.908883
vn -0.017405 -0.070606 0.997352
vn -0.018495 0.164708 0.986169
vn -0.007946 -0.234662 0.972044
vn -0.001802 -0.317345 0.948308
vn 0.000085 -0.348847 0.937180
vn 0.000448 -0.348886 0.937165
vn -0.000254 -0.348810 0.937193
vn 0.218207 0.288374 0.932323
vn 0.184250 0.341291 0.921722
vn 0.156392 0.308141 0.938398
vn 0.203244 0.390111 0.898056
vn 0.294318 0.313481 0.902833
vn 0.307627 0.271591 0.911923
vn 0.197107 0.348215 0.916458
vn 0.389414 0.137325 0.910768
vn 0.431194 -0.122825 0.893860
vn 0.439698 -0.120262 0.890058
vn 0.396970 0.112099 0.910960
vn 0.410832 -0.322850 0.852634
vn 0.425596 -0.258646 0.867163
vn 0.419625 -0.260976 0.869371
vn 0.409409 -0.323108 0.853221
vn 0.207156 0.375029 0.903570
vn 0.289273 0.369052 0.883245
vn 0.212320 0.429885 0.877564
vn 0.421919 -0.111564 0.899743
vn 0.383044 0.182923 0.905437
vn 0.414402 -0.256359 0.873242
vn 0.408310 -0.319950 0.854936
vn 0.405788 -0.348847 0.844773
vn 0.406312 -0.348887 0.844505
vn 0.405294 -0.348810 0.845025
vn 0.051295 0.527133 0.848233
vn 0.106958 0.570793 0.814098
vn 0.057708 0.575508 0.815758
vn 0.012550 0.481025 0.876617
vn 0.056631 0.458057 0.887117
vn 0.002244 0.249121 0.968470
vn -0.032734 0.261472 0.964656
vn -0.019421 0.063096 0.997818
vn -0.010765 0.067036 0.997693
vn -0.024476 -0.169682 0.985195
vn -0.003907 -0.170610 0.985331
vn -0.033606 -0.376635 0.925752
vn -0.027094 -0.375124 0.926579
vn -0.016143 -0.312106 0.949910
vn -0.034323 -0.314295 0.948705
vn 0.009695 0.593756 0.804587
vn -0.072356 0.270612 0.959965
vn -0.043357 0.498272 0.865936
vn 0.011814 -0.151309 0.988416
vn -0.044971 0.071938 0.996395
vn -0.018323 -0.369564 0.929025
vn 0.007735 -0.297677 0.954635
vn -0.033043 -0.402341 0.914893
vn -0.033689 -0.402359 0.914862
vn -0.032414 -0.402324 0.914923
s 1
g grass_SM
usemtl initialShadingGroup
f 6/6/1 24/24/2 25/25/3
f 10/10/4 15/15/5 16/16/6 7/7/7
f 11/11/8 18/18/9 19/19/10 8/8/11
f 22/22/12 9/9/13 12/12/14 21/21/15
f 23/23/16 24/24/2 6/6/1
f 14/14/17 15/15/5 10/10/4 5/5/18
f 17/17/19 18/18/9 11/11/8 4/4/20
f 21/21/15 12/12/14 3/3/21 20/20/22
f 4/4/20 11/11/8 15/15/5 14/14/17
f 16/16/6 15/15/5 11/11/8 8/8/11
f 3/3/21 12/12/14 18/18/9 17/17/19
f 19/19/10 18/18/9 12/12/14 9/9/13
f 13/13/23 21/21/15 20/20/22 1/1/24
f 2/2/25 22/22/12 21/21/15 13/13/23
f 5/5/18 10/10/4 24/24/2 23/23/16
f 25/25/3 24/24/2 10/10/4 7/7/7
s 4
f 31/26/26 49/27/27 50/28/28
f 35/29/29 40/30/30 41/31/31 32/32/32
f 36/33/33 43/34/34 44/35/35 33/36/36
f 47/37/37 34/38/38 37/39/39 46/40/40
f 48/41/41 49/27/27 31/26/26
f 39/42/42 40/30/30 35/29/29 30/43/43
f 42/44/44 43/34/34 36/33/33 29/45/45
f 46/40/40 37/39/39 28/46/46 45/47/47
f 29/45/45 36/33/33 40/30/30 39/42/42
f 41/31/31 40/30/30 36/33/33 33/36/36
f 28/46/46 37/39/39 43/34/34 42/44/44
f 44/35/35 43/34/34 37/39/39 34/38/38
f 38/48/48 46/40/40 45/47/47 26/49/49
f 27/50/50 47/37/37 46/40/40 38/48/48
f 30/43/43 35/29/29 49/27/27 48/41/41
f 50/28/28 49/27/27 35/29/29 32/32/32
s 7
f 56/51/51 74/52/52 75/53/53
f 60/54/54 65/55/55 66/56/56 57/57/57
f 61/58/58 68/59/59 69/60/60 58/61/61
f 72/62/62 59/63/63 62/64/64 71/65/65
f 73/66/66 74/52/52 56/51/51
f 64/67/67 65/55/55 60/54/54 55/68/68
f 67/69/69 68/59/59 61/58/58 54/70/70
f 71/65/65 62/64/64 53/71/71 70/72/72
f 54/70/70 61/58/58 65/55/55 64/67/67
f 66/56/56 65/55/55 61/58/58 58/61/61
f 53/71/71 62/64/64 68/59/59 67/69/69
f 69/60/60 68/59/59 62/64/64 59/63/63
f 63/73/73 71/65/65 70/72/72 51/74/74
f 52/75/75 72/62/62 71/65/65 63/73/73
f 55/68/68 60/54/54 74/52/52 73/66/66
f 75/53/53 74/52/52 60/54/54 57/57/57
s 10
f 81/76/76 99/77/77 100/78/78
f 85/79/79 90/80/80 91/81/81 82/82/82
f 86/83/83 93/84/84 94/85/85 83/86/86
f 97/87/87 84/88/88 87/89/89 96/90/90
f 98/91/91 99/77/77 81/76/76
f 89/92/92 90/80/80 85/79/79 80/93/93
f 92/94/94 93/84/84 86/83/83 79/95/95
f 96/90/90 87/89/89 78/96/96 95/97/97
f 79/95/95 86/83/83 90/80/80 89/92/92
f 91/81/81 90/80/80 86/83/83 83/86/86
f 78/96/96 87/89/89 93/84/84 92/94/94
f 94/85/85 93/84/84 87/89/89 84/88/88
f 88/98/98 96/90/90 95/97/97 76/99/99
f 77/100/100 97/87/87 96/90/90 88/98/98
f 80/93/93 85/79/79 99/77/77 98/91/91
f 100/78/78 99/77/77 85/79/79 82/82/82
s 13
f 106/101/101 124/102/102 125/103/103
f 110/104/104 115/105/105 116/106/106 107/107/107
f 111/108/108 118/109/109 119/110/110 108/111/111
f 122/112/112 109/113/113 112/114/114 121/115/115
f 123/116/116 124/102/102 106/101/101
f 114/117/117 115/105/105 110/104/104 105/118/118
f 117/119/119 118/109/109 111/108/108 104/120/120
f 121/115/115 112/114/114 103/121/121 120/122/122
f 104/120/120 111/108/108 115/105/105 114/117/117
f 116/106/106 115/105/105 111/108/108 108/111/111
f 103/121/121 112/114/114 118/109/109 117/119/119
f 119/110/110 118/109/109 112/114/114 109/113/113
f 113/123/123 121/115/115 120/122/122 101/124/124
f 102/125/125 122/112/112 121/115/115 113/123/123
f 105/118/118 110/104/104 124/102/102 123/116/116
f 125/103/103 124/102/102 110/104/104 107/107/107
s 16
f 131/126/126 149/127/127 150/128/128
f 135/129/129 140/130/130 141/131/131 132/132/132
f 136/133/133 143/134/134 144/135/135 133/136/136
f 147/137/137 134/138/138 137/139/139 146/140/140
f 148/141/141 149/127/127 131/126/126
f 139/142/142 140/130/130 135/129/129 130/143/143
f 142/144/144 143/134/134 136/133/133 129/145/145
f 146/140/140 137/139/139 128/146/146 145/147/147
f 129/145/145 136/133/133 140/130/130 139/142/142
f 141/131/131 140/130/130 136/133/133 133/136/136
f 128/146/146 137/139/139 143/134/134 142/144/144
f 144/135/135 143/134/134 137/139/139 134/138/138
f 138/148/148 146/140/140 145/147/147 126/149/149
f 127/150/150 147/137/137 146/140/140 138/148/148
f 130/143/143 135/129/129 149/127/127 148/141/141
f 150/128/128 149/127/127 135/129/129 132/132/132
s 19
f 156/151/151 174/152/152 175/153/153
f 160/154/154 165/155/155 166/156/156 157/157/157
f 161/158/158 168/159/159 169/160/160 158/161/161
f 172/162/162 159/163/163 162/164/164 171/165/165
f 173/166/166 174/152/152 156/151/151
f 164/167/167 165/155/155 160/154/154 155/168/168
f 167/169/169 168/159/159 161/158/158 154/170/170
f 171/165/165 162/164/164 153/171/171 170/172/172
f 154/170/170 161/158/158 165/155/155 164/167/167
f 166/156/156 165/155/155 161/158/158 158/161/161
f 153/171/171 162/164/164 168/159/159 167/169/169
f 169/160/160 168/159/159 162/164/164 159/163/163
f 163/173/173 171/165/165 170/172/172 151/174/174
f 152/175/175 172/162/162 171/165/165 163/173/173
f 155/168/168 160/154/154 174/152/152 173/166/166
f 175/153/153 174/152/152 160/154/154 157/157/157
s 22
f 181/176/176 200/177/177 199/178/178
f 185/179/179 182/180/180 191/181/181 190/182/182
f 186/183/183 183/184/184 194/185/185 193/186/186
f 197/187/187 196/188/188 187/189/189 184/190/190
f 198/191/191 181/176/176 199/178/178
f 189/192/192 180/193/193 185/179/179 190/182/182
f 192/194/194 179/195/195 186/183/183 193/186/186
f 196/188/188 195/196/196 178/197/197 187/189/189
f 179/195/195 189/192/192 190/182/182 186/183/183
f 191/181/181 183/184/184 186/183/183 190/182/182
f 178/197/197 192/194/194 193/186/186 187/189/189
f 194/185/185 184/190/190 187/189/189 193/186/186
f 188/198/198 176/199/199 195/196/196 196/188/188
f 177/200/200 188/198/198 196/188/188 197/187/187
f 180/193/193 198/191/191 199/178/178 185/179/179
f 200/177/177 182/180/180 185/179/179 199/178/178
